<svg width="860" height="520" viewBox="0 0 860 520" fill="none" xmlns="http://www.w3.org/2000/svg">
  <defs>
    <linearGradient id="projGlow" x1="110" y1="60" x2="760" y2="480" gradientUnits="userSpaceOnUse">
      <stop offset="0" stop-color="#F0B429"/>
      <stop offset="0.55" stop-color="#45D6B6"/>
      <stop offset="1" stop-color="#F0B429"/>
    </linearGradient>
    <linearGradient id="projBeam" x1="250" y1="120" x2="610" y2="400" gradientUnits="userSpaceOnUse">
      <stop offset="0" stop-color="#F0B429" stop-opacity="0.95"/>
      <stop offset="1" stop-color="#45D6B6" stop-opacity="0.95"/>
    </linearGradient>
  </defs>
  <rect x="20" y="20" width="820" height="480" rx="80" fill="#0D0F12"/>
  <rect x="20" y="20" width="820" height="480" rx="80" stroke="url(#projGlow)" stroke-width="6"/>
  <circle cx="220" cy="180" r="110" fill="url(#projGlow)" fill-opacity="0.18"/>
  <circle cx="640" cy="340" r="140" fill="url(#projGlow)" fill-opacity="0.14"/>
  <path
    d="M214 148H430C447.673 148 462 162.327 462 180V320C462 337.673 447.673 352 430 352H214C196.327 352 182 337.673 182 320V180C182 162.327 196.327 148 214 148Z"
    fill="#14181F"
    stroke="url(#projGlow)"
    stroke-width="4"
  />
  <path
    d="M468 188H654C671.673 188 686 202.327 686 220V360C686 377.673 671.673 392 654 392H468C450.327 392 436 377.673 436 360V220C436 202.327 450.327 188 468 188Z"
    fill="#14181F"
    stroke="url(#projGlow)"
    stroke-width="4"
  />
  <path
    d="M252 206H392"
    stroke="#F0B429"
    stroke-width="6"
    stroke-linecap="round"
  />
  <path
    d="M252 242H360"
    stroke="#45D6B6"
    stroke-width="6"
    stroke-linecap="round"
  />
  <path
    d="M252 278H328"
    stroke="#F0B429"
    stroke-width="6"
    stroke-linecap="round"
  />
  <path
    d="M508 238H636"
    stroke="#45D6B6"
    stroke-width="6"
    stroke-linecap="round"
  />
  <path
    d="M508 274H610"
    stroke="#F0B429"
    stroke-width="6"
    stroke-linecap="round"
  />
  <path
    d="M508 310H588"
    stroke="#45D6B6"
    stroke-width="6"
    stroke-linecap="round"
  />
  <path
    d="M310 364C356 414 440 426 520 404"
    stroke="url(#projBeam)"
    stroke-width="8"
    stroke-linecap="round"
  />
  <path
    d="M344 336C380 372 438 382 500 368"
    stroke="#F0B429"
    stroke-width="4"
    stroke-linecap="round"
    opacity="0.85"
  />
  <circle cx="312" cy="364" r="8" fill="#F0B429"/>
  <circle cx="520" cy="404" r="10" fill="#45D6B6"/>
</svg>
